<?xml version="1.0" encoding="UTF-8" standalone="no"?><svg xmlns="http://www.w3.org/2000/svg" xmlns:xlink="http://www.w3.org/1999/xlink" contentScriptType="application/ecmascript" contentStyleType="text/css" height="464px" preserveAspectRatio="none" style="width:688px;height:464px;" version="1.1" viewBox="0 0 688 464" width="688px" zoomAndPan="magnify"><defs><filter height="300%" id="fk9qcmha3b8o0" width="300%" x="-1" y="-1"><feGaussianBlur result="blurOut" stdDeviation="2.0"/><feColorMatrix in="blurOut" result="blurOut2" type="matrix" values="0 0 0 0 0 0 0 0 0 0 0 0 0 0 0 0 0 0 .4 0"/><feOffset dx="4.0" dy="4.0" in="blurOut2" result="blurOut3"/><feBlend in="SourceGraphic" in2="blurOut3" mode="normal"/></filter></defs><g><path d="M17,10 L17,65.3984 A0,0 0 0 0 17,65.3984 L283,65.3984 A0,0 0 0 0 283,65.3984 L283,41.6992 L303,37.6992 L283,33.6992 L283,20 L273,10 L17,10 A0,0 0 0 0 17,10 " fill="#FBFB77" filter="url(#fk9qcmha3b8o0)" style="stroke: #A80036; stroke-width: 1.0;"/><path d="M273,10 L273,20 L283,20 L273,10 " fill="#FBFB77" style="stroke: #A80036; stroke-width: 1.0;"/><text fill="#000000" font-family="sans-serif" font-size="13" lengthAdjust="spacingAndGlyphs" textLength="233" x="23" y="27.0669">Agent方式需要引导用户进行安装并注册</text><text fill="#000000" font-family="sans-serif" font-size="13" lengthAdjust="spacingAndGlyphs" textLength="245" x="23" y="42.1997">无代理方式需要提前配置好vCenter信息，</text><text fill="#000000" font-family="sans-serif" font-size="13" lengthAdjust="spacingAndGlyphs" textLength="195" x="23" y="57.3325">用户可以直接选择虚拟机进行迁移</text><rect fill="#FEFECE" filter="url(#fk9qcmha3b8o0)" height="33.9688" rx="12.5" ry="12.5" style="stroke: #A80036; stroke-width: 1.5;" width="92" x="303" y="20.7148"/><text fill="#000000" font-family="sans-serif" font-size="12" lengthAdjust="spacingAndGlyphs" textLength="72" x="313" y="41.8535">源端环境准备</text><path d="M415,75.3984 L415,114.2305 L395,118.2305 L415,122.2305 L415,161.0625 A0,0 0 0 0 415,161.0625 L670,161.0625 A0,0 0 0 0 670,161.0625 L670,85.3984 L660,75.3984 L415,75.3984 A0,0 0 0 0 415,75.3984 " fill="#FBFB77" filter="url(#fk9qcmha3b8o0)" style="stroke: #A80036; stroke-width: 1.0;"/><path d="M660,75.3984 L660,85.3984 L670,85.3984 L660,75.3984 " fill="#FBFB77" style="stroke: #A80036; stroke-width: 1.0;"/><text fill="#000000" font-family="sans-serif" font-size="13" lengthAdjust="spacingAndGlyphs" textLength="234" x="421" y="92.4653">如果使用单租户同步，该步骤可以在部署</text><text fill="#000000" font-family="sans-serif" font-size="13" lengthAdjust="spacingAndGlyphs" textLength="117" x="421" y="107.5981">阶段完成，无须对接</text><text fill="#000000" font-family="sans-serif" font-size="13" lengthAdjust="spacingAndGlyphs" textLength="234" x="421" y="122.731">如果为多租户同步，该步骤需要云管平台</text><text fill="#000000" font-family="sans-serif" font-size="13" lengthAdjust="spacingAndGlyphs" textLength="234" x="421" y="137.8638">创建云主机并执行安装操作后调用接口注</text><text fill="#000000" font-family="sans-serif" font-size="13" lengthAdjust="spacingAndGlyphs" textLength="78" x="421" y="152.9966">册回迁移平台</text><rect fill="#FEFECE" filter="url(#fk9qcmha3b8o0)" height="33.9688" rx="12.5" ry="12.5" style="stroke: #A80036; stroke-width: 1.5;" width="92" x="303" y="101.2461"/><text fill="#000000" font-family="sans-serif" font-size="12" lengthAdjust="spacingAndGlyphs" textLength="72" x="313" y="122.3848">目标平台准备</text><path d="M52,171.0625 L52,226.4609 A0,0 0 0 0 52,226.4609 L307,226.4609 A0,0 0 0 0 307,226.4609 L307,202.7617 L327,198.7617 L307,194.7617 L307,181.0625 L297,171.0625 L52,171.0625 A0,0 0 0 0 52,171.0625 " fill="#FBFB77" filter="url(#fk9qcmha3b8o0)" style="stroke: #A80036; stroke-width: 1.0;"/><path d="M297,171.0625 L297,181.0625 L307,181.0625 L297,171.0625 " fill="#FBFB77" style="stroke: #A80036; stroke-width: 1.0;"/><text fill="#000000" font-family="sans-serif" font-size="13" lengthAdjust="spacingAndGlyphs" textLength="234" x="58" y="188.1294">该步骤主要由云管平台对待迁移主机进行</text><text fill="#000000" font-family="sans-serif" font-size="13" lengthAdjust="spacingAndGlyphs" textLength="234" x="58" y="203.2622">合规性检查，判断是否满足迁移的基本条</text><text fill="#000000" font-family="sans-serif" font-size="13" lengthAdjust="spacingAndGlyphs" textLength="195" x="58" y="218.395">件，符合条件后才允许进入下一步</text><rect fill="#FEFECE" filter="url(#fk9qcmha3b8o0)" height="33.9688" rx="12.5" ry="12.5" style="stroke: #A80036; stroke-width: 1.5;" width="44" x="327" y="181.7773"/><text fill="#000000" font-family="sans-serif" font-size="12" lengthAdjust="spacingAndGlyphs" textLength="24" x="337" y="202.916">预检</text><path d="M421,250.8789 L421,259.4453 L401,263.4453 L421,267.4453 L421,276.0117 A0,0 0 0 0 421,276.0117 L676,276.0117 A0,0 0 0 0 676,276.0117 L676,260.8789 L666,250.8789 L421,250.8789 A0,0 0 0 0 421,250.8789 " fill="#FBFB77" filter="url(#fk9qcmha3b8o0)" style="stroke: #A80036; stroke-width: 1.0;"/><path d="M666,250.8789 L666,260.8789 L676,260.8789 L666,250.8789 " fill="#FBFB77" style="stroke: #A80036; stroke-width: 1.0;"/><text fill="#000000" font-family="sans-serif" font-size="13" lengthAdjust="spacingAndGlyphs" textLength="234" x="427" y="267.9458">注册主机成为待迁移主机，进入迁移流程</text><rect fill="#FEFECE" filter="url(#fk9qcmha3b8o0)" height="33.9688" rx="12.5" ry="12.5" style="stroke: #A80036; stroke-width: 1.5;" width="104" x="297" y="246.4609"/><text fill="#000000" font-family="sans-serif" font-size="12" lengthAdjust="spacingAndGlyphs" textLength="84" x="307" y="267.5996">注册待迁移主机</text><path d="M10,290.4297 L10,345.8281 A0,0 0 0 0 10,345.8281 L295,345.8281 A0,0 0 0 0 295,345.8281 L295,322.1289 L315,318.1289 L295,314.1289 L295,300.4297 L285,290.4297 L10,290.4297 A0,0 0 0 0 10,290.4297 " fill="#FBFB77" filter="url(#fk9qcmha3b8o0)" style="stroke: #A80036; stroke-width: 1.0;"/><path d="M285,290.4297 L285,300.4297 L295,300.4297 L285,290.4297 " fill="#FBFB77" style="stroke: #A80036; stroke-width: 1.0;"/><text fill="#000000" font-family="sans-serif" font-size="13" lengthAdjust="spacingAndGlyphs" textLength="156" x="16" y="307.4966">支持全量同步和增量同步；</text><text fill="#000000" font-family="sans-serif" font-size="13" lengthAdjust="spacingAndGlyphs" textLength="147" x="16" y="322.6294">可以停止同步和断点续传;</text><text fill="#000000" font-family="sans-serif" font-size="13" lengthAdjust="spacingAndGlyphs" textLength="264" x="16" y="337.7622">可以设定周期性快照策略，自动进行定时同步;</text><rect fill="#FEFECE" filter="url(#fk9qcmha3b8o0)" height="33.9688" rx="12.5" ry="12.5" style="stroke: #A80036; stroke-width: 1.5;" width="68" x="315" y="301.1445"/><text fill="#000000" font-family="sans-serif" font-size="12" lengthAdjust="spacingAndGlyphs" textLength="48" x="325" y="322.2832">数据同步</text><path d="M417,370.2461 L417,378.8125 L397,382.8125 L417,386.8125 L417,395.3789 A0,0 0 0 0 417,395.3789 L676,395.3789 A0,0 0 0 0 676,395.3789 L676,380.2461 L666,370.2461 L417,370.2461 A0,0 0 0 0 417,370.2461 " fill="#FBFB77" filter="url(#fk9qcmha3b8o0)" style="stroke: #A80036; stroke-width: 1.0;"/><path d="M666,370.2461 L666,380.2461 L676,380.2461 L666,370.2461 " fill="#FBFB77" style="stroke: #A80036; stroke-width: 1.0;"/><text fill="#000000" font-family="sans-serif" font-size="13" lengthAdjust="spacingAndGlyphs" textLength="238" x="423" y="387.313">根据规格进行启动后验证或正式启动主机;</text><rect fill="#FEFECE" filter="url(#fk9qcmha3b8o0)" height="33.9688" rx="12.5" ry="12.5" style="stroke: #A80036; stroke-width: 1.5;" width="96" x="301" y="365.8281"/><text fill="#000000" font-family="sans-serif" font-size="12" lengthAdjust="spacingAndGlyphs" textLength="76" x="311" y="386.9668">验证/启动主机</text><path d="M49,424.2148 L49,449.3477 A0,0 0 0 0 49,449.3477 L295,449.3477 A0,0 0 0 0 295,449.3477 L295,442.2148 L315,436.7813 L295,434.2148 L295,434.2148 L285,424.2148 L49,424.2148 A0,0 0 0 0 49,424.2148 " fill="#FBFB77" filter="url(#fk9qcmha3b8o0)" style="stroke: #A80036; stroke-width: 1.0;"/><path d="M285,424.2148 L285,434.2148 L295,434.2148 L285,424.2148 " fill="#FBFB77" style="stroke: #A80036; stroke-width: 1.0;"/><text fill="#000000" font-family="sans-serif" font-size="13" lengthAdjust="spacingAndGlyphs" textLength="225" x="55" y="441.2817">清理除正式启动的云主机外的全部资源;</text><rect fill="#FEFECE" filter="url(#fk9qcmha3b8o0)" height="33.9688" rx="12.5" ry="12.5" style="stroke: #A80036; stroke-width: 1.5;" width="68" x="315" y="419.7969"/><text fill="#000000" font-family="sans-serif" font-size="12" lengthAdjust="spacingAndGlyphs" textLength="48" x="325" y="440.9355">清理资源</text><line style="stroke: #A80036; stroke-width: 1.5;" x1="349" x2="349" y1="54.6836" y2="101.2461"/><polygon fill="#A80036" points="345,91.2461,349,101.2461,353,91.2461,349,95.2461" style="stroke: #A80036; stroke-width: 1.0;"/><line style="stroke: #A80036; stroke-width: 1.5;" x1="349" x2="349" y1="135.2148" y2="181.7773"/><polygon fill="#A80036" points="345,171.7773,349,181.7773,353,171.7773,349,175.7773" style="stroke: #A80036; stroke-width: 1.0;"/><line style="stroke: #A80036; stroke-width: 1.5;" x1="349" x2="349" y1="215.7461" y2="246.4609"/><polygon fill="#A80036" points="345,236.4609,349,246.4609,353,236.4609,349,240.4609" style="stroke: #A80036; stroke-width: 1.0;"/><line style="stroke: #A80036; stroke-width: 1.5;" x1="349" x2="349" y1="280.4297" y2="301.1445"/><polygon fill="#A80036" points="345,291.1445,349,301.1445,353,291.1445,349,295.1445" style="stroke: #A80036; stroke-width: 1.0;"/><line style="stroke: #A80036; stroke-width: 1.5;" x1="349" x2="349" y1="335.1133" y2="365.8281"/><polygon fill="#A80036" points="345,355.8281,349,365.8281,353,355.8281,349,359.8281" style="stroke: #A80036; stroke-width: 1.0;"/><line style="stroke: #A80036; stroke-width: 1.5;" x1="349" x2="349" y1="399.7969" y2="419.7969"/><polygon fill="#A80036" points="345,409.7969,349,419.7969,353,409.7969,349,413.7969" style="stroke: #A80036; stroke-width: 1.0;"/></g></svg>